<svg width="1068" height="322" viewBox="0 0 1068 322" fill="none" xmlns="http://www.w3.org/2000/svg">
<path d="M267.751 131.226L269.027 139.797L289.97 147.508C290.525 162.848 290.802 179.602 290.802 197.882V265.121C290.802 273.609 290.802 280.35 290.608 285.565V315.772C300.816 315.772 310.885 315.467 321.121 315.467C330.774 315.467 340.538 315.661 350.219 315.744V188.479V178.215C350.219 156.505 350.635 136.034 351.467 116.802L349.165 115.137C323.285 120.713 302.147 126.094 267.751 131.226Z" fill="white"/>
<path d="M805.051 293.066C781.121 293.066 762.703 286.594 749.795 273.649C736.887 260.704 730.415 240.686 730.378 213.595C730.378 190.349 735.482 171.792 745.689 157.923C755.897 144.053 768.972 137.119 784.912 137.119C790.09 136.943 795.26 137.656 800.197 139.227L816.341 191.431L827.88 189.573C831.671 167.955 836.082 147.345 841.112 127.743C821.742 119.828 801.011 115.776 780.086 115.815C746.799 115.815 719.43 125.773 697.978 145.69C676.527 165.606 665.82 191.69 665.857 223.941C665.857 253.529 675.713 277.126 695.426 294.731C715.14 312.336 740.308 321.184 770.932 321.277C796.221 321.131 821.031 314.36 842.887 301.638L841.195 289.1C829.316 291.665 817.204 292.995 805.051 293.066Z" fill="white"/>
<path d="M314.901 76.8583C321.953 76.8968 328.858 74.8406 334.741 70.9504C340.624 67.0603 345.219 61.5112 347.944 55.0066C350.67 48.502 351.403 41.3347 350.051 34.413C348.698 27.4913 345.322 21.1268 340.348 16.1263C335.375 11.1258 329.029 7.7143 322.115 6.32421C315.201 4.93412 308.029 5.62802 301.51 8.31796C294.99 11.0079 289.416 15.5728 285.494 21.4341C281.572 27.2953 279.478 34.1891 279.478 41.2416C279.46 45.9077 280.362 50.5315 282.133 54.8483C283.905 59.165 286.51 63.09 289.8 66.3984C293.091 69.7068 297.001 72.3337 301.309 74.1286C305.616 75.9234 310.234 76.851 314.901 76.8583Z" fill="white"/>
<path d="M1067.82 201.218C1067.82 174.608 1060.17 153.757 1044.88 138.667C1029.58 123.577 1007.87 116.014 979.744 115.977C947.604 115.977 921.141 125.834 900.355 145.547C879.569 165.26 869.195 190.705 869.232 221.884C869.232 254.597 880.031 279.35 901.631 296.141C923.23 312.932 951.089 321.318 985.208 321.3C1013.64 321.358 1041.67 314.635 1066.98 301.689L1065.32 288.54C1050.94 291.217 1036.34 292.536 1021.71 292.479C990.275 292.479 967.65 286.358 953.836 274.116C939.966 261.828 933.198 241.745 933.198 213.729H1067.2C1067.59 209.429 1067.82 205.268 1067.82 201.218ZM1004.02 193.479H934.03C934.683 178.996 938.894 164.896 946.291 152.426C953.355 141.071 962.823 135.403 974.695 135.422C979.176 135.192 983.632 136.224 987.555 138.401C991.478 140.579 994.711 143.814 996.886 147.738C1001.69 155.967 1004.1 169.541 1004.1 188.459L1004.02 193.479Z" fill="white"/>
<path d="M219.073 253.123V179.698C219.073 159.357 213.285 143.638 201.709 132.542C190.132 121.447 174.108 115.899 153.637 115.899C130.586 115.899 107.257 135.954 83.5958 150.018V63.7501C83.5958 42.0583 84.0212 21.5963 84.8718 2.36404L82.5695 0.699707C56.578 6.24747 35.1357 11.7952 0.18457 16.7605L1.43283 25.3318L23.208 33.6534C23.7627 48.9653 24.0401 65.738 24.0401 83.9717V266.798C24.0401 273.678 24.0401 280.834 24.0401 288.185V315.619C34.1371 315.508 44.3081 315.452 54.5531 315.452C64.798 315.452 74.5621 315.508 83.8455 315.619V271.708C83.8455 263.109 83.7068 254.122 83.7068 244.691V170.406C92.5001 162.278 107.867 144.942 119.462 144.942C132.759 144.942 142.763 148.64 149.476 156.037C156.189 163.434 159.536 175.723 159.518 192.902V280.39C159.518 283.802 159.518 286.632 159.518 288.851V315.674C169.309 315.674 179.656 315.48 190.613 315.48C200.183 315.48 209.642 315.702 219.156 315.785V265.384C219.073 261.445 219.073 257.423 219.073 253.123Z" fill="white"/>
<path d="M620.402 253.146V179.721C620.402 159.38 614.604 143.661 603.009 132.565C591.414 121.47 575.4 115.922 554.965 115.922C531.886 115.922 508.558 136.726 484.924 152.315V117.059L481.79 115.395C455.077 121.248 434.633 126.491 402.317 131.262L403.593 139.833L424.62 147.572C425.193 163.032 425.479 179.879 425.479 198.112V266.821C425.479 275.032 425.405 283.594 425.258 292.508C425.252 292.581 425.252 292.656 425.258 292.729V315.642C435.41 315.531 445.581 315.475 455.77 315.475C465.895 315.475 475.604 315.475 484.952 315.642V257.085C484.952 253.035 484.952 248.93 484.952 244.713V174.479C492.109 165.547 509.196 144.965 520.763 144.965C534.078 144.965 544.082 148.663 550.777 156.06C556.879 162.801 560.041 173.785 560.596 188.542V291.675V315.697C570.444 315.697 580.79 315.503 591.747 315.503C601.4 315.503 610.887 315.725 620.457 315.808V280.413C620.457 273.035 620.402 264.047 620.402 253.146Z" fill="white"/>
</svg>
