<svg width="24" height="18" viewBox="0 0 24 18" fill="none" xmlns="http://www.w3.org/2000/svg">
<path d="M12.0044 0.62085C12.0626 0.620857 19.4075 0.623156 21.2495 1.12476C22.268 1.39756 23.07 2.20754 23.3413 3.23999C23.8307 5.09626 23.8296 8.95431 23.8296 9.00171C23.8296 9.00171 23.829 12.8967 23.3364 14.7644C23.0651 15.7926 22.264 16.6026 21.2456 16.8796C19.4006 17.3791 11.9995 17.3796 11.9995 17.3796C11.9403 17.3796 4.59215 17.377 2.75439 16.8796C1.73591 16.6068 0.933916 15.7969 0.662598 14.7644C0.170112 12.8967 0.17041 9.00171 0.17041 9.00171C0.170429 8.95432 0.173815 5.09543 0.66748 3.23511C0.938926 2.20709 1.73998 1.39683 2.7583 1.11987C4.60334 0.620448 12.0044 0.62085 12.0044 0.62085ZM9.84912 12.4001L16.3013 8.94995L9.84912 5.49976V12.4001Z" fill="white"/>
</svg>
