<svg width="24" height="24" viewBox="0 0 24 24" fill="none" xmlns="http://www.w3.org/2000/svg">
<path d="M4.5 11.3579C4.5 12.2585 4.67739 13.1503 5.02203 13.9824C5.36667 14.8144 5.87182 15.5704 6.50864 16.2072C7.14546 16.8441 7.90147 17.3492 8.73351 17.6938C9.56555 18.0385 10.4573 18.2159 11.3579 18.2159C12.2585 18.2159 13.1503 18.0385 13.9823 17.6938C14.8144 17.3492 15.5704 16.8441 16.2072 16.2072C16.844 15.5704 17.3492 14.8144 17.6938 13.9824C18.0385 13.1503 18.2159 12.2585 18.2159 11.3579C18.2159 10.4573 18.0385 9.56556 17.6938 8.73352C17.3492 7.90148 16.844 7.14546 16.2072 6.50864C15.5704 5.87183 14.8144 5.36667 13.9823 5.02203C13.1503 4.67739 12.2585 4.5 11.3579 4.5C10.4573 4.5 9.56555 4.67739 8.73351 5.02203C7.90147 5.36667 7.14546 5.87183 6.50864 6.50864C5.87182 7.14546 5.36667 7.90148 5.02203 8.73352C4.67739 9.56556 4.5 10.4573 4.5 11.3579Z" stroke="black" stroke-width="1.4" stroke-linecap="round" stroke-linejoin="round"/>
<path d="M19.5 19.5L16.5 16.5" stroke="black" stroke-width="1.4" stroke-linecap="square"/>
</svg>
