<svg width="20" height="20" viewBox="0 0 20 20" fill="none" xmlns="http://www.w3.org/2000/svg">
<path d="M9.99585 6.71165C8.18616 6.71165 6.70762 8.19024 6.70762 9.99998C6.70762 11.8097 8.18616 13.2883 9.99585 13.2883C11.8055 13.2883 13.2841 11.8097 13.2841 9.99998C13.2841 8.19024 11.8055 6.71165 9.99585 6.71165ZM19.8567 9.99998C19.8567 8.6369 19.8682 7.28923 19.7912 5.93C19.7142 4.3513 19.3561 2.95357 18.201 1.79842C17.0459 0.64327 15.6482 0.285173 14.0696 0.208163C12.7065 0.131154 11.3589 0.142705 9.9997 0.142705C8.63666 0.142705 7.28902 0.131154 5.92984 0.208163C4.35118 0.285173 2.95349 0.64327 1.79837 1.79842C0.643255 2.95357 0.285169 4.3513 0.208162 5.93C0.131154 7.29308 0.142705 8.64075 0.142705 9.99998C0.142705 11.3592 0.131154 12.7107 0.208162 14.07C0.285169 15.6487 0.643255 17.0464 1.79837 18.2015C2.95349 19.3567 4.35118 19.7148 5.92984 19.7918C7.29288 19.8688 8.64051 19.8572 9.9997 19.8572C11.3627 19.8572 12.7104 19.8688 14.0696 19.7918C15.6482 19.7148 17.0498 19.3567 18.201 18.2015C19.3561 17.0464 19.7142 15.6487 19.7912 14.07C19.8721 12.7107 19.8567 11.3631 19.8567 9.99998ZM9.99585 15.0595C7.19662 15.0595 4.93644 12.7993 4.93644 9.99998C4.93644 7.20067 7.19662 4.94042 9.99585 4.94042C12.7951 4.94042 15.0553 7.20067 15.0553 9.99998C15.0553 12.7993 12.7951 15.0595 9.99585 15.0595ZM15.2632 5.9146C14.6086 5.9146 14.0811 5.38708 14.0811 4.7325C14.0811 4.07791 14.6086 3.55039 15.2632 3.55039C15.9177 3.55039 16.4452 4.07791 16.4452 4.7325C16.4452 5.38708 15.9177 5.9146 15.2632 5.9146Z" fill="white"/>
</svg>
