<svg width="87" height="26" viewBox="0 0 87 26" fill="none" xmlns="http://www.w3.org/2000/svg">
<path d="M21.6963 10.5859L21.7998 11.2809L23.4981 11.9063C23.543 13.1502 23.5655 14.5088 23.5655 15.9911V21.4436C23.5655 22.1319 23.5655 22.6785 23.5498 23.1013V25.5509C24.3776 25.5509 25.1941 25.5261 26.0241 25.5261C26.8069 25.5261 27.5987 25.5419 28.3838 25.5486V15.2286V14.3963C28.3838 12.6358 28.4175 10.9758 28.485 9.41621L28.2983 9.28125C26.1996 9.73337 24.4855 10.1697 21.6963 10.5859Z" fill="#A16E72"/>
<path d="M65.268 23.7118C63.3275 23.7118 61.8339 23.187 60.7872 22.1373C59.7404 21.0876 59.2156 19.4643 59.2126 17.2674C59.2126 15.3824 59.6265 13.8776 60.4543 12.7529C61.282 11.6283 62.3423 11.0659 63.6349 11.0659C64.0548 11.0517 64.474 11.1095 64.8743 11.2369L66.1835 15.4702L67.1192 15.3195C67.4267 13.5665 67.7843 11.8952 68.1922 10.3056C66.6214 9.66377 64.9404 9.3352 63.2435 9.3384C60.5442 9.3384 58.3248 10.1459 56.5853 11.761C54.8457 13.376 53.9775 15.4912 53.9805 18.1064C53.9805 20.5057 54.7798 22.4192 56.3783 23.8468C57.9769 25.2744 60.0179 25.9919 62.5012 25.9994C64.552 25.9876 66.5638 25.4385 68.3362 24.4069L68.1989 23.3902C67.2357 23.5982 66.2534 23.706 65.268 23.7118Z" fill="#A16E72"/>
<path d="M25.5209 6.1772C26.0928 6.18032 26.6528 6.01358 27.1298 5.69812C27.6069 5.38267 27.9795 4.93269 28.2005 4.40523C28.4215 3.87777 28.481 3.29656 28.3713 2.73528C28.2617 2.17399 27.9878 1.65789 27.5846 1.2524C27.1813 0.846902 26.6667 0.570262 26.106 0.457539C25.5453 0.344816 24.9638 0.401084 24.4351 0.619214C23.9064 0.837343 23.4544 1.20751 23.1363 1.68281C22.8183 2.1581 22.6485 2.71712 22.6485 3.28902C22.647 3.66739 22.7202 4.04234 22.8638 4.39239C23.0074 4.74244 23.2187 5.06072 23.4855 5.329C23.7524 5.59728 24.0695 5.81029 24.4188 5.95584C24.768 6.10139 25.1426 6.17661 25.5209 6.1772Z" fill="#A16E72"/>
<path d="M86.5761 16.2599C86.5761 14.1021 85.9561 12.4113 84.7159 11.1876C83.4757 9.96398 81.7152 9.35066 79.4343 9.34766C76.828 9.34766 74.682 10.1469 72.9965 11.7455C71.3109 13.344 70.4697 15.4074 70.4727 17.9357C70.4727 20.5885 71.3484 22.5957 73.1 23.9573C74.8515 25.3189 77.1107 25.9989 79.8774 25.9974C82.1828 26.0021 84.4561 25.4569 86.5087 24.4071L86.3737 23.3409C85.2076 23.558 84.0237 23.665 82.8376 23.6603C80.2883 23.6603 78.4535 23.164 77.3333 22.1713C76.2086 21.1748 75.6598 19.5463 75.6598 17.2744H86.5267C86.5581 16.9258 86.5761 16.5884 86.5761 16.2599ZM81.4025 15.6324H75.7273C75.7802 14.4579 76.1217 13.3145 76.7215 12.3033C77.2944 11.3826 78.0621 10.923 79.0249 10.9245C79.3883 10.9058 79.7496 10.9895 80.0677 11.1661C80.3858 11.3426 80.648 11.605 80.8244 11.9232C81.2143 12.5905 81.4093 13.6912 81.4093 15.2252L81.4025 15.6324Z" fill="#A16E72"/>
<path d="M17.75 20.4702V14.5161C17.75 12.8666 17.2807 11.5919 16.3419 10.6922C15.4032 9.79245 14.1038 9.34258 12.4437 9.34258C10.5744 9.34258 8.68269 10.9689 6.76395 12.1093V5.11378C6.76395 3.35478 6.79844 1.6955 6.86743 0.135938L6.68073 0.000976562C4.57304 0.450849 2.83425 0.900721 0 1.30336L0.101223 1.99841L1.867 2.67322C1.91199 3.91487 1.93449 5.27498 1.93449 6.75356V21.5791C1.93449 22.1369 1.93449 22.7173 1.93449 23.3134V25.538C2.75327 25.529 3.57805 25.5245 4.40883 25.5245C5.23961 25.5245 6.0314 25.529 6.7842 25.538V21.9772C6.7842 21.2799 6.77295 20.5511 6.77295 19.7864V13.7626C7.48601 13.1035 8.73218 11.6977 9.67243 11.6977C10.7506 11.6977 11.5619 11.9976 12.1063 12.5974C12.6506 13.1972 12.9221 14.1937 12.9206 15.5868V22.6813C12.9206 22.958 12.9206 23.1874 12.9206 23.3674V25.5425C13.7146 25.5425 14.5536 25.5267 15.4421 25.5267C16.2182 25.5267 16.9852 25.5447 17.7568 25.5515V21.4644C17.75 21.145 17.75 20.8188 17.75 20.4702Z" fill="#A16E72"/>
<path d="M50.2932 20.4706V14.5166C50.2932 12.867 49.8231 11.5924 48.8828 10.6926C47.9426 9.7929 46.6439 9.34303 44.9869 9.34303C43.1154 9.34303 41.2236 11.0301 39.3071 12.2942V9.43525L39.0529 9.30029C36.8868 9.77491 35.229 10.2 32.6084 10.5869L32.7119 11.282L34.4169 11.9096C34.4634 13.1632 34.4866 14.5293 34.4866 16.0079V21.5796C34.4866 22.2454 34.4806 22.9397 34.4687 23.6625C34.4682 23.6685 34.4682 23.6745 34.4687 23.6805V25.5384C35.2919 25.5294 36.1167 25.5249 36.943 25.5249C37.764 25.5249 38.5513 25.5249 39.3094 25.5384V20.79C39.3094 20.4616 39.3094 20.1287 39.3094 19.7868V14.0914C39.8897 13.3671 41.2753 11.6981 42.2133 11.6981C43.2931 11.6981 44.1043 11.998 44.6472 12.5979C45.1421 13.1445 45.3985 14.0352 45.4435 15.2319V23.595V25.5429C46.242 25.5429 47.0811 25.5272 47.9696 25.5272C48.7524 25.5272 49.5217 25.5452 50.2977 25.5519V22.6818C50.2977 22.0834 50.2932 21.3546 50.2932 20.4706Z" fill="#A16E72"/>
</svg>
